# xmcd
#
# Track frame offsets: 
#        150
#        17805
#        33407
#        52465
#        73772
#        87817
#        100695
#        126147
#        148525
#        175977
#        215640
#
# Disc length: 3149 seconds
#
# Revision: 2
# Processed by: cddbd v1.5.2PL0 Copyright (c) Steve Scherf et al.
# Submitted via: ExactAudioCopy v0.99pb5
#
DISCID=a10c4b0b
DTITLE=Mojo Blues Band - The Jazzland Session
DYEAR=1900
DGENRE=Blues
TTITLE0=Get high as a georgia pine
TTITLE1=Money ain't reason enough
TTITLE2=Papa tree top boogie
TTITLE3=Cleanhead blues
TTITLE4=Shovelin'
TTITLE5=Why don'tcha stop it
TTITLE6=Take a train, train
TTITLE7=I keep on drinking
TTITLE8=Slidin' back (instrumental)
TTITLE9=The corner liquor store
TTITLE10=Got my mojo working
EXTD=ID3G: 0
EXTT0=
EXTT1=
EXTT2=
EXTT3=
EXTT4=
EXTT5=
EXTT6=
EXTT7=
EXTT8=
EXTT9=
EXTT10=
PLAYORDER=
